<svg width="16" height="16" viewBox="0 0 16 16" fill="none" xmlns="http://www.w3.org/2000/svg">
                            <g clipPath="url(#clip0_102_384)">
                                <path d="M15 4V0H8V4H0V16H6V13H10V16H16V4H15ZM4 11H2V9H4V11ZM4 8H2V6H4V8ZM7 11H5V9H7V11ZM7 8H5V6H7V8ZM10 3V2H11V1H12V2H13V3H12V4H11V3H10ZM11 11H9V9H11V11ZM11 8H9V6H11V8ZM14 11H12V9H14V11ZM14 8H12V6H14V8Z" fill="white" />
                            </g>
                            <defs>
                                <clipPath id="clip0_102_384">
                                    <rect width="16" height="16" fill="white" />
                                </clipPath>
                            </defs>
                        </svg>