<svg width="23" height="20" viewBox="0 0 23 20" fill="none" xmlns="http://www.w3.org/2000/svg">
<path d="M12 10.1058C12 9.57138 11.5667 9.13809 11.0322 9.13809C10.4978 9.13809 10.0645 9.57138 10.0645 10.1058H12ZM11.0322 19.0323H10.0645C10.0645 19.3535 10.224 19.6539 10.4902 19.8339C10.7564 20.0139 11.0946 20.0501 11.3928 19.9303L11.0322 19.0323ZM18.4438 16.0568L18.8043 16.9548C19.1712 16.8076 19.4116 16.452 19.4116 16.0568H18.4438ZM19.4116 9.87099C19.4116 9.33654 18.9783 8.90325 18.4438 8.90325C17.9094 8.90325 17.4761 9.33654 17.4761 9.87099H19.4116ZM11.6199 9.33693C11.1952 9.01241 10.5879 9.09357 10.2633 9.51822C9.93882 9.94286 10.02 10.5502 10.4446 10.8747L11.6199 9.33693ZM13.6748 12.1252L13.0872 12.8941C13.3749 13.1139 13.7613 13.1549 14.0886 13L13.6748 12.1252ZM18.8538 10.7458C19.3369 10.5172 19.5433 9.94028 19.3148 9.45719C19.0862 8.97409 18.5093 8.76764 18.0262 8.99616L18.8538 10.7458ZM10.6717 9.20777C10.1757 9.40686 9.93508 9.97035 10.1342 10.4663C10.3333 10.9623 10.8968 11.203 11.3928 11.0039L10.6717 9.20777ZM18.8043 8.02842C19.3003 7.82932 19.541 7.2658 19.3419 6.76981C19.1428 6.27383 18.5793 6.03316 18.0833 6.23228L18.8043 8.02842ZM18.0834 8.02842C18.5794 8.22751 19.1429 7.98674 19.3419 7.49074C19.541 6.99474 19.3002 6.43127 18.8042 6.23223L18.0834 8.02842ZM11.3926 3.25804C10.8966 3.059 10.3331 3.29975 10.1342 3.79576C9.93508 4.29178 10.1759 4.85525 10.6719 5.0543L11.3926 3.25804ZM18.918 6.28806C18.4522 6.02615 17.8622 6.19152 17.6002 6.65741C17.3383 7.12331 17.5037 7.71332 17.9696 7.97526L18.918 6.28806ZM21.0903 8.61938L21.5036 9.49448C21.8309 9.3399 22.0446 9.01551 22.0574 8.6537C22.0703 8.2919 21.8801 7.95319 21.5645 7.77577L21.0903 8.61938ZM18.0262 8.99616C17.5429 9.22441 17.3366 9.80093 17.5649 10.2843C17.7931 10.7675 18.3704 10.9741 18.8538 10.7458L18.0262 8.99616ZM17.7224 6.48098C17.3638 6.87725 17.3943 7.48919 17.7905 7.8479C18.1868 8.20648 18.7988 8.17603 19.1575 7.77977L17.7224 6.48098ZM21.6129 3.62456L22.3304 4.27394C22.5495 4.03177 22.6318 3.69537 22.549 3.37941C22.4663 3.06344 22.2298 2.81052 21.92 2.70686L21.6129 3.62456ZM13.6748 0.967793L13.9819 0.0500925C13.6033 -0.0766426 13.1857 0.0422212 12.9304 0.349356L13.6748 0.967793ZM10.2814 3.53773C9.93986 3.94883 9.99624 4.55897 10.4073 4.90052C10.8184 5.24208 11.4286 5.1857 11.7702 4.77461L10.2814 3.53773ZM3.25379 6.23223C2.75778 6.43127 2.51703 6.99474 2.71607 7.49074C2.91512 7.98674 3.47859 8.22751 3.97461 8.02842L3.25379 6.23223ZM11.3862 5.0543C11.8822 4.85525 12.1229 4.29178 11.9239 3.79576C11.7249 3.29975 11.1614 3.059 10.6654 3.25804L11.3862 5.0543ZM4.08843 7.97396C4.55433 7.71203 4.71969 7.12202 4.45778 6.65612C4.19586 6.19023 3.60586 6.02486 3.13997 6.28677L4.08843 7.97396ZM0.967756 8.61809L0.493526 7.77448C0.178107 7.95177 -0.0120471 8.29035 0.000610945 8.6519C0.013269 9.01357 0.22661 9.33796 0.553667 9.4928L0.967756 8.61809ZM3.20011 10.7457C3.68317 10.9743 4.26017 10.7681 4.48887 10.2851C4.71756 9.80196 4.51136 9.22506 4.02829 8.99628L3.20011 10.7457ZM3.97474 6.23228C3.47876 6.03316 2.91525 6.27383 2.71613 6.76981C2.517 7.2658 2.75767 7.82932 3.25366 8.02842L3.97474 6.23228ZM10.6653 11.0039C11.1613 11.203 11.7248 10.9623 11.9239 10.4663C12.1229 9.97035 11.8823 9.40686 11.3863 9.20777L10.6653 11.0039ZM2.89123 7.77371C3.24651 8.17293 3.85821 8.20854 4.2575 7.85332C4.65679 7.49809 4.69245 6.88634 4.33717 6.48705L2.89123 7.77371ZM0.967756 4.15617L0.585332 3.2672C0.299707 3.39007 0.0905204 3.64269 0.0230625 3.94621C-0.0443953 4.24973 0.0380947 4.56719 0.244791 4.79947L0.967756 4.15617ZM8.37935 0.967793L9.12399 0.349717C8.84993 0.0195115 8.39109 -0.0907591 7.99692 0.0788275L8.37935 0.967793ZM10.2811 4.77425C10.6224 5.18551 11.2326 5.24217 11.6439 4.90081C12.0551 4.55946 12.1119 3.94934 11.7704 3.53809L10.2811 4.77425ZM11.9935 10.1071C11.9935 9.57267 11.5602 9.13938 11.0258 9.13938C10.4913 9.13938 10.0581 9.57267 10.0581 10.1071H11.9935ZM11.0258 19.0323L10.6653 19.9303C10.9635 20.0501 11.3017 20.0139 11.5679 19.8339C11.834 19.6539 11.9935 19.3535 11.9935 19.0323H11.0258ZM3.6142 16.0568H2.64646C2.64646 16.452 2.88685 16.8076 3.25366 16.9548L3.6142 16.0568ZM4.58194 9.87099C4.58194 9.33654 4.14866 8.90325 3.6142 8.90325C3.07974 8.90325 2.64646 9.33654 2.64646 9.87099H4.58194ZM11.6129 10.8751C12.0378 10.551 12.1193 9.94364 11.7951 9.51873C11.4709 9.09383 10.8636 9.01228 10.4387 9.33654L11.6129 10.8751ZM8.37935 12.1252L7.96551 13C8.29264 13.1547 8.6787 13.1141 8.96644 12.8945L8.37935 12.1252ZM4.02829 8.99628C3.54516 8.76777 2.96796 8.97409 2.7394 9.45719C2.51085 9.94028 2.71698 10.5171 3.20011 10.7457L4.02829 8.99628ZM10.0645 10.1058V19.0323H12V10.1058H10.0645ZM11.3928 19.9303L18.8043 16.9548L18.0833 15.1587L10.6717 18.1342L11.3928 19.9303ZM19.4116 16.0568V9.87099H17.4761V16.0568H19.4116ZM10.4446 10.8747L13.0872 12.8941L14.2624 11.3563L11.6199 9.33693L10.4446 10.8747ZM14.0886 13L18.8538 10.7458L18.0262 8.99616L13.261 11.2503L14.0886 13ZM11.3928 11.0039L18.8043 8.02842L18.0833 6.23228L10.6717 9.20777L11.3928 11.0039ZM18.8042 6.23223L11.3926 3.25804L10.6719 5.0543L18.0834 8.02842L18.8042 6.23223ZM17.9696 7.97526L20.6161 9.46299L21.5645 7.77577L18.918 6.28806L17.9696 7.97526ZM20.677 7.74429L18.0262 8.99616L18.8538 10.7458L21.5036 9.49448L20.677 7.74429ZM19.1575 7.77977L22.3304 4.27394L20.8953 2.97518L17.7224 6.48098L19.1575 7.77977ZM21.92 2.70686L13.9819 0.0500925L13.3677 1.88549L21.3058 4.54226L21.92 2.70686ZM12.9304 0.349356L10.2814 3.53773L11.7702 4.77461L14.4192 1.58623L12.9304 0.349356ZM3.97461 8.02842L11.3862 5.0543L10.6654 3.25804L3.25379 6.23223L3.97461 8.02842ZM3.13997 6.28677L0.493526 7.77448L1.44199 9.4617L4.08843 7.97396L3.13997 6.28677ZM0.553667 9.4928L3.20011 10.7457L4.02829 8.99628L1.38185 7.74338L0.553667 9.4928ZM3.25366 8.02842L10.6653 11.0039L11.3863 9.20777L3.97474 6.23228L3.25366 8.02842ZM4.33717 6.48705L1.69072 3.51287L0.244791 4.79947L2.89123 7.77371L4.33717 6.48705ZM1.35018 5.04514L8.7618 1.85676L7.99692 0.0788275L0.585332 3.2672L1.35018 5.04514ZM7.6347 1.58587L10.2811 4.77425L11.7704 3.53809L9.12399 0.349717L7.6347 1.58587ZM10.0581 10.1071V19.0323H11.9935V10.1071H10.0581ZM11.3863 18.1342L3.97474 15.1587L3.25366 16.9548L10.6653 19.9303L11.3863 18.1342ZM4.58194 16.0568V9.87099H2.64646V16.0568H4.58194ZM10.4387 9.33654L7.7923 11.3559L8.96644 12.8945L11.6129 10.8751L10.4387 9.33654ZM8.79315 11.2503L4.02829 8.99628L3.20011 10.7457L7.96551 13L8.79315 11.2503Z" fill="white"/>
</svg>
