<svg width="20" height="20" viewBox="0 0 20 20" fill="none" xmlns="http://www.w3.org/2000/svg">
<path d="M9.16713 13.8875C9.24987 13.8869 9.32996 13.9167 9.39218 13.9712C9.4544 14.0257 9.49442 14.1012 9.50463 14.1833V18.9833C9.50495 19.2445 9.40473 19.4958 9.22475 19.6851C9.04477 19.8744 8.79884 19.9872 8.53797 20H1.6963C1.43812 19.9996 1.18968 19.9013 1.00104 19.725C0.812393 19.5488 0.697549 19.3076 0.679634 19.05V14.2292C0.679002 14.1464 0.708784 14.0663 0.763324 14.0041C0.817864 13.9419 0.893359 13.9019 0.975468 13.8917H9.16713V13.8875ZM19.0046 13.8875C19.0871 13.8878 19.1667 13.9179 19.2288 13.9722C19.2908 14.0266 19.3311 14.1016 19.3421 14.1833V18.9833C19.3424 19.2452 19.2416 19.4971 19.0607 19.6865C18.8799 19.8759 18.6329 19.9882 18.3713 20H11.5296C11.2719 19.9995 11.0239 19.9011 10.836 19.7247C10.648 19.5484 10.534 19.3072 10.5171 19.05V14.2292C10.5165 14.1464 10.5463 14.0663 10.6008 14.0041C10.6554 13.9419 10.7309 13.9019 10.813 13.8917H18.9838L19.0046 13.8875ZM6.53797 15.2917L6.50047 15.3208L4.5838 17.4292L3.70463 16.5958C3.66182 16.5533 3.60545 16.5271 3.54532 16.5217C3.48519 16.5164 3.4251 16.5323 3.37547 16.5667L3.34213 16.5958L2.97963 16.9208C2.95759 16.9378 2.93926 16.9592 2.92576 16.9835C2.91227 17.0079 2.9039 17.0347 2.90117 17.0625C2.89843 17.0902 2.9014 17.1181 2.90988 17.1447C2.91836 17.1712 2.93217 17.1957 2.95047 17.2167L2.97963 17.25L4.22963 18.4292C4.3263 18.5245 4.45637 18.5783 4.59213 18.5792C4.65972 18.5812 4.72696 18.5688 4.78944 18.543C4.85192 18.5171 4.90821 18.4783 4.95463 18.4292L7.25463 15.9958C7.28907 15.9544 7.30994 15.9034 7.31441 15.8498C7.31888 15.7961 7.30674 15.7424 7.27963 15.6958L7.25463 15.6667L6.89213 15.3417C6.8516 15.2883 6.79165 15.2532 6.72533 15.2438C6.65901 15.2345 6.59168 15.2517 6.53797 15.2917ZM16.3755 15.2917L16.338 15.3208L14.3963 17.4292L13.5171 16.5958C13.475 16.5536 13.4193 16.5275 13.3599 16.5222C13.3005 16.5169 13.2411 16.5326 13.1921 16.5667L13.1546 16.5958L12.7921 16.9208C12.7704 16.9381 12.7524 16.9597 12.7393 16.9842C12.7262 17.0087 12.7182 17.0357 12.7159 17.0634C12.7135 17.0911 12.7169 17.1189 12.7257 17.1453C12.7345 17.1717 12.7486 17.1959 12.7671 17.2167L12.7921 17.25L14.0421 18.4292C14.1388 18.5245 14.2689 18.5783 14.4046 18.5792C14.4723 18.5814 14.5396 18.5692 14.6021 18.5433C14.6646 18.5175 14.7209 18.4785 14.7671 18.4292L17.0838 15.975C17.1134 15.9306 17.1291 15.8784 17.1291 15.825C17.1291 15.7716 17.1134 15.7194 17.0838 15.675V15.6458L16.7213 15.3208C16.6781 15.273 16.6183 15.2434 16.5541 15.238C16.4899 15.2326 16.4261 15.2518 16.3755 15.2917ZM8.5588 10.4917C8.80738 10.501 9.04318 10.6042 9.21869 10.7805C9.3942 10.9568 9.49638 11.193 9.50463 11.4417V12.5292C9.50601 12.6088 9.47916 12.6864 9.42883 12.7482C9.3785 12.81 9.30793 12.8519 9.22963 12.8667H0.317134C0.237857 12.8651 0.161905 12.8345 0.103581 12.7808C0.0452568 12.7271 0.00858387 12.6539 0.00046764 12.575V11.5125C-0.00721484 11.2623 0.0799965 11.0185 0.244604 10.8299C0.409211 10.6413 0.639036 10.522 0.887968 10.4958H8.5588V10.4917ZM19.0505 10.4917C19.2998 10.5 19.5366 10.6027 19.713 10.7791C19.8894 10.9555 19.9921 11.1924 20.0005 11.4417V12.5292C20.0018 12.6088 19.975 12.6864 19.9247 12.7482C19.8743 12.81 19.8038 12.8519 19.7255 12.8667H10.8088C10.7296 12.8639 10.6541 12.8324 10.5966 12.7779C10.539 12.7234 10.5034 12.6498 10.4963 12.5708V11.5125C10.4886 11.2623 10.5758 11.0185 10.7404 10.8299C10.905 10.6413 11.1349 10.522 11.3838 10.4958H19.0505V10.4917ZM14.0505 3.40833C14.1325 3.40872 14.2116 3.43896 14.2729 3.4934C14.3343 3.54785 14.3737 3.62277 14.3838 3.70417V8.4875C14.3844 8.74597 14.2864 8.99496 14.11 9.18381C13.9335 9.37267 13.6917 9.48722 13.4338 9.50417H6.61297C6.3544 9.50268 6.10595 9.40353 5.9174 9.22658C5.72886 9.04963 5.61417 8.80795 5.5963 8.55V3.75C5.59669 3.66798 5.62693 3.5889 5.68137 3.52756C5.73582 3.46621 5.81074 3.42679 5.89213 3.41667H14.0671L14.0505 3.40833ZM11.438 4.8125L11.4046 4.84167L9.46297 6.95L8.5838 6.11667C8.54166 6.07444 8.48602 6.04838 8.4266 6.04304C8.36718 6.03771 8.30778 6.05345 8.2588 6.0875L8.2213 6.11667L7.8588 6.44167C7.83725 6.45903 7.81937 6.48051 7.80621 6.50486C7.79306 6.5292 7.78488 6.55592 7.78217 6.58347C7.77945 6.61101 7.78225 6.63881 7.7904 6.66526C7.79855 6.69171 7.81189 6.71626 7.82963 6.7375L7.8588 6.77083L9.1088 7.94583C9.15593 7.99436 9.21226 8.03299 9.27451 8.05946C9.33676 8.08593 9.40366 8.09971 9.4713 8.1C9.53927 8.102 9.60687 8.08926 9.66945 8.06265C9.73202 8.03604 9.78809 7.99618 9.8338 7.94583L12.138 5.51667C12.1707 5.47432 12.1901 5.42322 12.1938 5.36982C12.1976 5.31643 12.1854 5.26313 12.1588 5.21667L12.138 5.1875L11.7755 4.8625C11.7374 4.81669 11.6847 4.78545 11.6262 4.77406C11.5677 4.76267 11.5071 4.77183 11.4546 4.8L11.438 4.8125ZM14.0671 0C14.3249 0.000501645 14.5728 0.0988877 14.7608 0.275254C14.9488 0.45162 15.0627 0.6928 15.0796 0.95V2.0375C15.0785 2.11975 15.0481 2.1989 14.9939 2.26076C14.9397 2.32261 14.8652 2.36312 14.7838 2.375H5.2588C5.17669 2.37576 5.09712 2.34656 5.035 2.29287C4.97287 2.23918 4.93245 2.16468 4.9213 2.08333V1.01667C4.92067 0.758865 5.01801 0.510453 5.19361 0.321703C5.36921 0.132952 5.60996 0.0179609 5.86713 0H14.0671Z" fill="white"/>
</svg>
