<svg width="22" height="20" viewBox="0 0 22 20" fill="none" xmlns="http://www.w3.org/2000/svg">
<path d="M12.7273 5.45455H3.63636V3.63636H12.7273V5.45455ZM16.3636 13.1036V20H0V0H16.3636V3.26L21.2855 8.18182L16.3636 13.1036ZM16.4418 10.4545L14.0909 8.10364L10 12.1945V14.5455H12.3509L16.4418 10.4545ZM16.3636 5.83091L15.3764 6.81818L17.7273 9.16909L18.7145 8.18182L16.3636 5.83091ZM14.5455 14.9218L13.1036 16.3636H3.63636V14.5455H8.18182V12.7273H3.63636V10.9091H8.71455L10.5327 9.09091H3.63636V7.27273H12.3509L14.5455 5.07818V1.81818H1.81818V18.1818H14.5455V14.9218Z" fill="white"/>
</svg>
