<svg width="26" height="24" viewBox="0 0 26 24" fill="none" xmlns="http://www.w3.org/2000/svg">
<path d="M5.75 15.75L2 12L5.75 8.25" stroke="white" stroke-width="3" stroke-linecap="round" stroke-linejoin="round"/>
<path d="M2 12H19.5" stroke="white" stroke-width="3" stroke-linecap="round" stroke-linejoin="round"/>
<path d="M10.75 7V3.25C10.75 2.91848 10.8817 2.60054 11.1161 2.36612C11.3505 2.1317 11.6685 2 12 2H23.25C23.5815 2 23.8995 2.1317 24.1339 2.36612C24.3683 2.60054 24.5 2.91848 24.5 3.25V20.75C24.5 21.0815 24.3683 21.3995 24.1339 21.6339C23.8995 21.8683 23.5815 22 23.25 22H12C11.6685 22 11.3505 21.8683 11.1161 21.6339C10.8817 21.3995 10.75 21.0815 10.75 20.75V17" stroke="white" stroke-width="3" stroke-linecap="round" stroke-linejoin="round"/>
</svg>
