<svg width="20" height="20" viewBox="0 0 20 20" fill="none" xmlns="http://www.w3.org/2000/svg">
<g clip-path="url(#clip0_514_487)">
<path d="M0 6.26L2.5 0H17.5L20 6.26C20 6.95333 19.7533 7.54 19.26 8.02C18.7667 8.5 18.18 8.74667 17.5 8.76C16.82 8.77333 16.2333 8.52667 15.74 8.02C15.2467 7.51333 15 6.92667 15 6.26C15 6.95333 14.7533 7.54 14.26 8.02C13.7667 8.5 13.18 8.74667 12.5 8.76C11.82 8.77333 11.2333 8.52667 10.74 8.02C10.2467 7.51333 10 6.92667 10 6.26C10 6.95333 9.75333 7.54 9.26 8.02C8.76667 8.5 8.18 8.74667 7.5 8.76C6.82 8.77333 6.23333 8.52667 5.74 8.02C5.24667 7.51333 5 6.92667 5 6.26C5 6.95333 4.75333 7.54 4.26 8.02C3.76667 8.5 3.18 8.74667 2.5 8.76C1.82 8.77333 1.23333 8.52667 0.74 8.02C0.246667 7.51333 0 6.92667 0 6.26ZM1.26 18.76H18.76V20H1.26V18.76ZM2.5 17.5V10C3.44667 10 4.28 9.68 5 9.04V15H15V9.04C15.72 9.68 16.5533 10 17.5 10V17.5H2.5Z" fill="white"/>
</g>
<defs>
<clipPath id="clip0_514_487">
<rect width="20" height="20" fill="white"/>
</clipPath>
</defs>
</svg>
